# xmcd
#
# Track frame offsets:
#	150
#	21768
#	37477
#	56347
#	76472
#	92084
#	107516
#	128663
#	142292
#	165155
#
# Disc length: 2471 seconds
# Revision: 0
# Processed by: cddbd v1.5.2PL0 Copyright (c) Steve Scherf et al.
# Submitted via: dBpowerAMP V12.0
#
DISCID=7f09a50a
DTITLE=Sally-Anne Whitten - Burgundy Street
DYEAR=2017
DGENRE=Country
TTITLE0=Watch It Burn
TTITLE1=Misfit
TTITLE2=Split Decision
TTITLE3=Tennessee Lullaby
TTITLE4=Southern Nights
TTITLE5=Take My Love
TTITLE6=The Life You Left Behind
TTITLE7=Save Yourself
TTITLE8=You Can't Hide From A Broken Heart
TTITLE9=Good Day In Hell
EXTD=
EXTT0=
EXTT1=
EXTT2=
EXTT3=
EXTT4=
EXTT5=
EXTT6=
EXTT7=
EXTT8=
EXTT9=
PLAYORDER=
